<?xml version="1.0" encoding="UTF-8"?>
<svg width="160px" height="160px" viewBox="0 0 160 160" version="1.1" xmlns="http://www.w3.org/2000/svg" xmlns:xlink="http://www.w3.org/1999/xlink">
    <!-- Generator: Sketch 41.1 (35376) - http://www.bohemiancoding.com/sketch -->
    <title>Group</title>
    <desc>Created with Sketch.</desc>
    <defs></defs>
    <g id="Mobile-Layout" stroke="none" stroke-width="1" fill="none" fill-rule="evenodd">
        <g id="iPhone-SE" transform="translate(-80.000000, -204.000000)">
            <g id="Group" transform="translate(80.000000, 204.000000)">
                <polygon id="Rectangle-4" fill="#F4B5B3" transform="translate(40.000000, 120.000000) scale(-1, 1) translate(-40.000000, -120.000000) " points="0 80 80 160 0 160"></polygon>
                <polygon id="Rectangle-4" fill="#F8CEC9" points="80 80 160 160 80 160"></polygon>
                <polygon id="Rectangle-4" fill="#B0C9D7" transform="translate(120.000000, 40.000000) scale(1, -1) translate(-120.000000, -40.000000) " points="80 0 160 80 80 80"></polygon>
                <polygon id="Rectangle-4" fill="#8AAFC7" transform="translate(40.000000, 40.000000) scale(-1, -1) translate(-40.000000, -40.000000) " points="4.26325641e-14 0 80 80 4.26325641e-14 80"></polygon>
                <polygon id="Rectangle-4" fill="#ACB1C0" points="0 0 80 80 0 80"></polygon>
                <polygon id="Rectangle-4" fill="#BCA6B3" transform="translate(40.000000, 120.000000) scale(1, -1) translate(-40.000000, -120.000000) " points="0 80 80 160 0 160"></polygon>
            </g>
        </g>
    </g>
</svg>